<?xml version="1.0"?>
<svg id="Layer_2" data-name="Layer 2" xmlns="http://www.w3.org/2000/svg" xmlns:xlink="http://www.w3.org/1999/xlink" viewBox="0 0 3237.3 748.57">
  <g id="Layer_1-2" data-name="Layer 1">
    <g fill="currentColor">
      <path d="m524.37,553c6.43,11.14,6.43,24.86,0,36l-92.14,159.57L0,0h184.21c12.86,0,24.73,6.87,31.16,18l309,535Zm-8-535C509.95,6.88,498.09.02,485.25,0h-114.86c-27.7,0-45,30-31.16,54l247,427.84,88.61-153.44c6.43-11.14,6.43-24.86,0-36L516.37,18ZM804.64,0h-135.1c-27.7,0-45,30-31.16,54l97.38,168.74,98.74-171c13.28-23-3.31-51.74-29.86-51.74Z"></path>
      <path d="m1021.83,434l-119.31-248c-2.61-5.21,0-8.92,5.57-8.92h24.16c4.09,0,6.69,1.48,8.55,5.57l104.82,217.07,103.71-217.07c1.85-4.09,4.46-5.57,8.55-5.57h24.12c5.57,0,7.8,3.71,5.57,8.92l-118.9,248c-1.86,4.09-4.46,5.58-8.55,5.58h-29.74c-4.09-.04-6.69-1.53-8.55-5.58Z"></path>
      <path d="m1182.76,381.92c0-40.51,16-57.61,66.54-63.19l92.18-10c8.92-1.12,11.89-5.95,11.89-14.87,0-23.79-7.06-30.11-38.28-30.11h-108.17c-4.83,0-7.43-2.6-7.43-7.43v-18.25c0-4.83,2.6-7.43,7.43-7.43h108.91c53.53,0,72.48,19,72.48,61.33v140.13c0,4.84-2.6,7.44-7.43,7.44h-20.07c-4.83,0-7.44-2.6-7.44-7.44v-24.53c-9.66,21.93-23.79,32-64.67,32h-27.88c-49.82-.03-78.06-17.87-78.06-57.65Zm120.06,25.28c38.66,0,50.55-13.38,50.55-48.32v-20.45l-98.5,10.41c-29.73,3-36.8,10-36.8,30.11,0,18.21,13,28.25,42.75,28.25h42Z"></path>
      <path d="m1453.35,505.33v-18.22c0-4.83,2.6-7.43,7.43-7.43h99.62c34.57,0,43.49-13,43.49-46.46v-30.48c-7.44,19.7-23.42,29-58.73,29h-44.61c-62.07,0-76.94-27.13-76.94-82.52v-37.22c0-53.89,14.87-81.4,76.94-81.4h44.61c35.31,0,51.29,9.66,58.73,29v-21.53c0-4.83,2.6-7.43,7.43-7.43h20.07c4.84,0,7.44,2.6,7.44,7.43v192.17c0,50.93-16.36,82.52-78.43,82.52h-99.62c-4.78,0-7.43-2.6-7.43-7.43Zm108.16-106.68c29,0,42.38-6.32,42.38-46.46v-42.75c0-39-13.38-45.72-42.38-45.72h-60.21c-34.57,0-42.75,8.18-42.75,45.72v42.75c0,38.28,8.18,46.46,42.75,46.46h60.21Z"></path>
      <path d="m1670,381.92c0-40.51,16-57.61,66.53-63.19l92.18-10c8.92-1.12,11.9-5.95,11.9-14.87,0-23.79-7.06-30.11-38.29-30.11h-108.12c-4.83,0-7.44-2.6-7.44-7.43v-18.25c0-4.83,2.61-7.43,7.44-7.43h108.91c53.52,0,72.48,19,72.48,61.33v140.13c0,4.84-2.61,7.44-7.44,7.44h-20.07c-4.83,0-7.43-2.6-7.43-7.44v-24.53c-9.67,21.93-23.79,32-64.68,32h-27.88c-49.8-.03-78.09-17.87-78.09-57.65Zm120.1,25.28c38.65,0,50.55-13.38,50.55-48.32v-20.45l-98.5,10.41c-29.74,3-36.8,10-36.8,30.11,0,18.21,13,28.25,42.74,28.25h42.01Z"></path>
      <path d="m2130.56,313.16v45c0,53.9-14.87,81.41-76.94,81.41h-44.23c-33.83,0-50.93-8.92-59.1-27.14v19.7c0,4.84-2.61,7.44-7.44,7.44h-20.07c-4.83,0-7.43-2.6-7.43-7.44V164.85c0-4.83,2.6-7.43,7.43-7.43h20.07c4.83,0,7.44,2.6,7.44,7.43v92.92c8.17-18.21,25.27-27.13,59.1-27.13h44.23c62.07,0,76.94,27.13,76.94,82.52Zm-34.94-3c0-38.28-8.18-46.46-42.37-46.46h-60.25c-29.36,0-42.74,6.69-42.74,46.46v50.56c0,39,13.38,45.71,42.74,45.71h60.22c34.19,0,42.37-8.17,42.37-45.71l.03-50.56Z"></path>
      <path d="m2164,357v-45c0-53.89,14.87-81.4,76.95-81.4h61.7c62.07,0,76.94,27.51,76.94,81.4v45c0,55.38-14.87,82.52-76.94,82.52h-61.65c-62.13.02-77-27.12-77-82.52Zm137.9,49.43c34.57,0,42.75-8.17,42.75-46.46v-50.53c0-37.54-8.18-45.72-42.75-45.72h-60.21c-34.57,0-42.75,8.18-42.75,45.72v50.56c0,38.29,8.18,46.46,42.75,46.46l60.21-.03Z"></path>
      <path d="m2419.72,430.24v-243.83c0-5.95,3.34-9.29,9.29-9.29h33.46c4.52-.13,8.81,1.95,11.52,5.57l144.22,179.16v-175.44c0-5.95,3.34-9.29,9.29-9.29h33.08c6,0,9.3,3.34,9.3,9.29v243.83c0,5.95-3.35,9.3-9.3,9.3h-33.45c-4.52.12-8.81-1.96-11.52-5.58l-144.22-178v174.28c0,5.95-3.35,9.3-9.3,9.3h-33.09c-5.94,0-9.28-3.35-9.28-9.3Z"></path>
      <path d="m2716.69,430.24v-243.83c0-5.95,3.35-9.29,9.3-9.29h159.46c61.33,0,87.72,32.7,87.72,98.5v66.9c0,65.42-26.39,97-87.72,97h-159.45c-6,.02-9.31-3.33-9.31-9.28Zm162.81-39.77c28.25,0,42.75-7.8,42.75-48.69v-65.78c0-40.89-13.76-49.44-42.75-49.44h-111.14v163.91h111.14Z"></path>
      <path d="m3015.15,430.24v-243.83c0-5.95,3.35-9.29,9.3-9.29h203.32c5.95,0,9.29,3.34,9.29,9.29v30.85c0,6-3.34,9.29-9.29,9.29h-161.32v57.24h104.45c5.95,0,9.29,3.35,9.29,9.3v27.13c0,5.95-3.34,9.29-9.29,9.29h-104.45v60.59h161.32c5.95,0,9.29,3.35,9.29,9.29v30.85c0,5.95-3.34,9.3-9.29,9.3h-203.32c-5.95,0-9.3-3.35-9.3-9.3Z"></path>
      <path d="m1666.46,593.76v-79.42c-.15-1.17.69-2.24,1.86-2.39.17-.02.35-.02.52,0h64.52c1.17-.14,2.24.69,2.38,1.87.02.17.02.35,0,.52v6.56c.15,1.17-.68,2.23-1.85,2.38-.18.02-.36.02-.53,0h-55.22v24.45h37.45c1.17-.15,2.23.68,2.38,1.85.02.18.02.36,0,.53v6.21c.15,1.17-.68,2.23-1.85,2.38-.18.02-.36.02-.53,0h-37.45v35.06c.15,1.17-.69,2.24-1.86,2.39-.17.02-.35.02-.52,0h-6.92c-1.17.14-2.24-.69-2.38-1.87-.02-.17-.02-.35,0-.52Z"></path>
      <path d="m1770,567.17v-52.83c-.14-1.18.7-2.25,1.88-2.39.17-.02.34-.02.51,0h6.91c1.18-.14,2.25.7,2.39,1.88.02.17.02.34,0,.51v53.19c0,13.47,4.65,17.29,16.58,17.29h25.73c11.93,0,16.46-3.82,16.46-17.29v-53.19c-.14-1.18.7-2.25,1.88-2.39.17-.02.34-.02.51,0h7c1.18-.14,2.25.7,2.39,1.88.02.17.02.34,0,.51v52.83c0,18.48-7.87,29-28.27,29h-25.75c-20.52-.02-28.22-10.52-28.22-29Z"></path>
      <path d="m1891.57,593.76v-79.42c-.12-1.18.75-2.23,1.93-2.35.17-.02.33-.01.5,0h6.91c1.17-.15,2.24.68,2.39,1.86.02.18.02.36,0,.53v70.48h54.26c1.17-.15,2.24.69,2.39,1.86.02.17.02.35,0,.52v6.56c.14,1.18-.7,2.25-1.88,2.39-.17.02-.34.02-.51,0h-63.56c-1.18.17-2.26-.65-2.43-1.83-.03-.2-.03-.41,0-.61Z"></path>
      <path d="m1992.68,593.76v-79.42c-.14-1.18.7-2.25,1.88-2.39.17-.02.34-.02.51,0h6.93c1.17-.14,2.24.69,2.38,1.87.02.17.02.35,0,.52v70.48h54.26c1.17-.15,2.24.69,2.39,1.86.02.17.02.35,0,.52v6.56c.14,1.18-.7,2.25-1.88,2.39-.17.02-.34.02-.51,0h-63.56c-1.18.15-2.25-.69-2.4-1.87-.02-.17-.02-.35,0-.52Z"></path>
      <path d="m2145,570.15c-.15-1.17.69-2.24,1.86-2.39.17-.02.35-.02.52,0h6.92c1.18-.14,2.25.7,2.39,1.88.02.17.02.34,0,.51.59,11.09,4.77,14.67,16.57,14.67h22.74c13,0,17.41-3,17.41-12.64s-4.41-11.21-15.74-12l-26.13-2.18c-18.36-1.43-26-6.56-26-22.19s7.39-23.85,29-23.85h21c19.92,0,27.55,8.11,28.27,26,.14,1.18-.7,2.25-1.88,2.39-.17.02-.34.02-.51,0h-6.91c-1.17.15-2.24-.68-2.39-1.86-.02-.18-.02-.36,0-.53-.6-11.09-4.77-14.67-16.58-14.67h-20.87c-13.23,0-17.53,2.87-17.53,12.64,0,9.07,4.3,10.86,15.63,11.81l26.11,2c18.25,1.43,26.12,6.91,26.12,22.42s-7.39,24-29,24h-22.78c-19.92,0-27.56-8.16-28.22-26.01Z"></path>
      <path d="m2261.32,593.76v-79.42c-.14-1.18.7-2.25,1.88-2.39.17-.02.34-.02.51,0h66.42c1.18-.14,2.25.7,2.39,1.88.02.17.02.34,0,.51v6.56c.14,1.17-.69,2.24-1.87,2.38-.17.02-.35.02-.52,0h-57.13v24.45h38.88c1.17-.15,2.23.68,2.38,1.85.02.18.02.36,0,.53v6.21c.15,1.17-.68,2.23-1.85,2.38-.18.02-.36.02-.53,0h-38.88v26.12h57.12c1.17-.15,2.24.69,2.39,1.86.02.17.02.35,0,.52v6.56c.14,1.18-.7,2.25-1.88,2.39-.17.02-.34.02-.51,0h-66.42c-1.18.14-2.25-.71-2.38-1.89-.02-.17-.02-.33,0-.5Z"></path>
      <path d="m2428.15,569.91l16.33,23.38c1.08,1.55.36,2.86-1.55,2.86h-8.23c-1.16.03-2.25-.56-2.86-1.55l-16-23.5h-35.84v22.66c.14,1.18-.7,2.25-1.88,2.39-.17.02-.34.02-.51,0h-6.92c-1.17.14-2.24-.69-2.38-1.87-.02-.17-.02-.35,0-.52v-79.42c-.15-1.17.69-2.24,1.86-2.39.17-.02.35-.02.52,0h43.17c25.05,0,33.4,9.18,33.4,29.1v1.43c-.03,15.27-4.8,24.45-19.11,27.43Zm7.27-28.74c0-14.67-5.49-17.89-22.3-17.89h-33.12v36.61h33.15c16.69,0,22.3-3.1,22.3-17.53l-.03-1.19Z"></path>
      <path d="m2514.47,594.36l-38.28-79.54c-.84-1.67,0-2.87,1.79-2.87h7.75c1.21-.1,2.34.64,2.74,1.79l33.63,69.65,33.27-69.65c.4-1.15,1.53-1.89,2.75-1.79h7.75c1.79,0,2.5,1.2,1.79,2.87l-38.17,79.54c-.4,1.15-1.53,1.89-2.74,1.79h-9.54c-1.21.1-2.34-.64-2.74-1.79Z"></path>
      <path d="m2600.31,593.76v-79.42c-.14-1.18.7-2.25,1.88-2.39.17-.02.34-.02.51,0h6.91c1.18-.14,2.25.7,2.39,1.88.02.17.02.34,0,.51v79.42c.14,1.18-.7,2.25-1.88,2.39-.17.02-.34.02-.51,0h-6.91c-1.18.14-2.25-.7-2.39-1.88-.02-.17-.02-.34,0-.51Z"></path>
      <path d="m2649.32,567.17v-26.12c0-18.6,7.75-29.1,28.26-29.1h26.59c20.52,0,28.27,10.5,28.27,29.1v1c.15,1.17-.68,2.24-1.86,2.39-.18.02-.36.02-.53,0h-6.91c-1.55,0-2.39-.71-2.39-1.91v-1.79c0-13.59-4.53-17.41-16.58-17.41h-26.59c-12,0-16.58,3.82-16.58,17.41v26.84c0,13.47,4.66,17.29,16.58,17.29h26.59c11.93,0,16.58-3.82,16.58-17.29v-2.68c-.14-1.17.69-2.24,1.87-2.38.17-.02.35-.02.52,0h6.91c1.15-.16,2.22.65,2.38,1.8.02.15.02.3.01.46v2.39c0,18.48-7.75,29-28.27,29h-26.59c-20.51-.02-28.26-10.52-28.26-29Z"></path>
      <path d="m2768.55,593.76v-79.42c-.14-1.18.7-2.25,1.88-2.39.17-.02.34-.02.51,0h66.42c1.18-.14,2.25.7,2.39,1.88.02.17.02.34,0,.51v6.56c.14,1.17-.69,2.24-1.87,2.38-.17.02-.35.02-.52,0h-57.12v24.45h38.88c1.17-.15,2.23.68,2.38,1.85.02.18.02.36,0,.53v6.21c.15,1.17-.68,2.23-1.85,2.38-.18.02-.36.02-.53,0h-38.88v26.12h57.12c1.17-.15,2.24.69,2.39,1.86.02.17.02.35,0,.52v6.56c.14,1.18-.7,2.25-1.88,2.39-.17.02-.34.02-.51,0h-66.42c-1.18.14-2.25-.7-2.39-1.88-.02-.17-.02-.34,0-.51Z"></path>
      <path d="m2929.16,593.76v-79.42c-.14-1.18.7-2.25,1.88-2.39.17-.02.34-.02.51,0h7.51c1.17-.04,2.29.5,3,1.43l54.27,65.71v-64.75c-.15-1.17.69-2.24,1.86-2.39.17-.02.35-.02.52,0h6.92c1.17-.14,2.24.69,2.38,1.87.02.17.02.35,0,.52v79.42c.15,1.17-.69,2.24-1.86,2.39-.17.02-.35.02-.52,0h-7.75c-1.17.03-2.29-.5-3-1.43l-54-65.36v64.4c.15,1.17-.69,2.24-1.86,2.39-.17.02-.35.02-.52,0h-6.92c-1.18.16-2.26-.67-2.42-1.85-.02-.18-.03-.36,0-.54Z"></path>
      <path d="m3046.85,593.76v-79.42c-.15-1.17.68-2.24,1.86-2.39.18-.02.36-.02.53,0h51.39c20.4,0,28.15,9.78,28.15,31.61v21.44c0,21.71-7.75,31.13-28.15,31.13h-51.39c-1.17.15-2.24-.69-2.39-1.86-.02-.17-.02-.34,0-.51Zm52.71-8.82c12.88,0,17.65-3.94,17.65-20v-21.38c0-16.1-4.65-20.28-17.65-20.28h-41v61.66h41Z"></path>
      <path d="m3166.09,593.76v-79.42c-.15-1.17.69-2.24,1.86-2.39.17-.02.35-.02.52,0h66.43c1.17-.14,2.24.69,2.38,1.87.02.17.02.35,0,.52v6.56c.15,1.17-.68,2.23-1.85,2.38-.18.02-.36.02-.53,0h-57.13v24.45h38.88c1.17-.15,2.24.69,2.39,1.86.02.17.02.35,0,.52v6.21c.14,1.17-.69,2.24-1.87,2.38-.17.02-.35.02-.52,0h-38.88v26.12h57.13c1.17-.15,2.23.68,2.38,1.85.02.18.02.36,0,.53v6.56c.15,1.17-.69,2.24-1.86,2.39-.17.02-.35.02-.52,0h-66.43c-1.17.14-2.24-.69-2.38-1.87-.02-.17-.02-.35,0-.52Z"></path>
    </g>
  </g>
</svg>